<svg width="17" height="17" viewBox="0 0 17 17" fill="none" xmlns="http://www.w3.org/2000/svg">
<path d="M16.4909 3.28572C16.4699 3.15297 16.2569 1.96047 15.3929 1.08972C14.5252 0.240718 13.3282 0.0307181 13.1947 0.00971815C13.0169 -0.0195319 12.8354 0.0179682 12.6832 0.112468C12.5947 0.167218 10.4677 1.49922 6.14916 5.78697C1.60191 10.3027 0.409406 12.1072 0.360656 12.1815C0.292406 12.2865 0.251156 12.4072 0.241406 12.5317L0.00215604 15.585C-0.014344 15.804 0.0644061 16.0185 0.219656 16.1737C0.360656 16.3147 0.551906 16.3935 0.750656 16.3935C0.769406 16.3935 0.788906 16.3935 0.808406 16.3912L3.88416 16.1542C4.00791 16.1445 4.12716 16.1047 4.23141 16.038C4.30641 15.99 6.12366 14.8057 10.6702 10.2915C14.9894 6.00297 16.3312 3.89022 16.3867 3.80247C16.4827 3.64872 16.5202 3.46497 16.4917 3.28572H16.4909ZM9.61341 9.22722C5.91591 12.8985 4.06791 14.3122 3.56541 14.6745L1.56666 14.829L1.72116 12.855C2.09016 12.351 3.51591 10.5157 7.20516 6.85197C8.34741 5.71797 9.33216 4.79622 10.1617 4.05522C10.1692 4.05672 10.1767 4.05822 10.1849 4.05972C10.1939 4.06122 11.1127 4.22022 11.7007 4.79472C12.2797 5.36097 12.4424 6.24222 12.4469 6.26397C12.4469 6.26697 12.4484 6.26922 12.4484 6.27222C11.6992 7.09947 10.7647 8.08422 9.61341 9.22722ZM13.5952 4.96422C13.4159 4.56372 13.1474 4.11072 12.7499 3.72222C12.3569 3.33747 11.8994 3.07647 11.4944 2.90247C12.3487 2.18997 12.9254 1.76547 13.2262 1.55472C13.5404 1.64772 14.0129 1.83747 14.3369 2.15472C14.6767 2.49672 14.8582 2.96547 14.9444 3.25647C14.7307 3.55647 14.3062 4.12572 13.5959 4.96497L13.5952 4.96422Z" fill="#414141"/>
</svg>
